<svg width="18" height="15" viewBox="0 0 18 15" fill="none" xmlns="http://www.w3.org/2000/svg">
<path d="M1.125 13.9998H0.625V14.4998H1.125V13.9998ZM1.125 6.9998L1.125 6.4998L0.625 6.4998V6.9998H1.125ZM7.54688 1.8873L7.97639 2.14327L7.97752 2.14135L7.54688 1.8873ZM9.75 5.9998H9.25V6.4998H9.75V5.9998ZM17.2359 7.5373L16.7422 7.45794L16.7409 7.46718L17.2359 7.5373ZM16.4859 12.8331L15.9909 12.763L15.9908 12.7635L16.4859 12.8331ZM4 6.9998V13.9998H5V6.9998H4ZM1.625 13.9998V6.9998H0.625V13.9998H1.625ZM1.125 7.4998L4.5 7.4998L4.5 6.4998L1.125 6.4998L1.125 7.4998ZM4.92951 7.25577L7.97638 2.14327L7.11737 1.63132L4.07049 6.74383L4.92951 7.25577ZM7.97752 2.14135C8.07901 1.96932 8.30287 1.83313 8.57812 1.83313V0.83313C7.99088 0.83313 7.41787 1.12194 7.11623 1.63324L7.97752 2.14135ZM8.57812 1.83313C9.00585 1.83313 9.25 2.12968 9.25 2.3748H10.25C10.25 1.46992 9.44415 0.83313 8.57812 0.83313V1.83313ZM9.25 2.3748V5.9998H10.25V2.3748H9.25ZM9.75 6.4998H15.7125V5.4998H9.75V6.4998ZM15.7125 6.4998C16.3418 6.4998 16.75 6.94217 16.75 7.36646H17.75C17.75 6.28242 16.7801 5.4998 15.7125 5.4998V6.4998ZM16.75 7.36646C16.75 7.39596 16.7478 7.42353 16.7423 7.45796L17.7296 7.61663C17.7428 7.53439 17.75 7.45363 17.75 7.36646H16.75ZM16.7409 7.46718L15.9909 12.763L16.981 12.9032L17.731 7.60741L16.7409 7.46718ZM15.9908 12.7635C15.9377 13.1408 15.5509 13.4998 15 13.4998V14.4998C15.9584 14.4998 16.8466 13.8588 16.9811 12.9028L15.9908 12.7635ZM15 13.4998H1.125V14.4998H15V13.4998Z" fill="#B6B3B6"/>
</svg>
