<svg width="39" height="36" viewBox="0 0 39 36" fill="none" xmlns="http://www.w3.org/2000/svg">
<path d="M38.5 18C38.5 27.6334 30.1279 35.5 19.7273 35.5C9.32664 35.5 0.954529 27.6334 0.954529 18C0.954529 8.36664 9.32664 0.5 19.7273 0.5C30.1279 0.5 38.5 8.36664 38.5 18Z" stroke="#BABABA"/>
<path d="M20.8734 6.37426C22.5155 4.29585 24.7983 4.28572 24.7983 4.28572C24.7983 4.28572 25.1379 6.23978 23.5066 8.12215C21.7648 10.1321 19.785 9.80322 19.785 9.80322C19.785 9.80322 19.4132 8.22245 20.8734 6.37426ZM19.9938 11.172C20.8386 11.172 22.4064 10.0569 24.4472 10.0569C27.9599 10.0569 29.3419 12.4573 29.3419 12.4573C29.3419 12.4573 26.6391 13.7843 26.6391 17.0044C26.6391 20.6369 30.006 21.8887 30.006 21.8887C30.006 21.8887 27.6524 28.2505 24.4733 28.2505C23.0132 28.2505 21.878 27.3055 20.3395 27.3055C18.7717 27.3055 17.2158 28.2857 16.2025 28.2857C13.2995 28.2858 9.63202 22.251 9.63202 17.4001C9.63202 12.6274 12.7363 10.1238 15.648 10.1238C17.5409 10.1238 19.0098 11.172 19.9938 11.172Z" fill="black"/>
</svg>
