<svg width="39" height="36" viewBox="0 0 39 36" fill="none" xmlns="http://www.w3.org/2000/svg">
<g clip-path="url(#clip0_96_3320)">
<path d="M30.2741 18.1924C30.2741 17.3496 30.1992 16.7346 30.037 16.0968H19.4921V19.9008H25.6817C25.557 20.8461 24.8831 22.2698 23.3856 23.2264L23.3646 23.3538L26.6987 25.7111L26.9297 25.7321C29.0511 23.944 30.2741 21.313 30.2741 18.1924Z" fill="#4285F4"/>
<path d="M19.4922 28.215C22.5247 28.215 25.0704 27.3039 26.9299 25.7322L23.3857 23.2265C22.4373 23.8301 21.1644 24.2515 19.4922 24.2515C16.5222 24.2515 14.0014 22.4635 13.1028 19.992L12.9711 20.0022L9.50426 22.4509L9.45892 22.5659C11.3058 25.9143 15.0995 28.215 19.4922 28.215Z" fill="#34A853"/>
<path d="M13.1036 19.992C12.8665 19.3542 12.7293 18.6708 12.7293 17.9647C12.7293 17.2585 12.8665 16.5751 13.0912 15.9374L13.0849 15.8015L9.5746 13.3135L9.45975 13.3633C8.69855 14.7528 8.26178 16.3132 8.26178 17.9647C8.26178 19.6161 8.69855 21.1764 9.45975 22.5659L13.1036 19.992Z" fill="#FBBC05"/>
<path d="M19.4922 11.6777C21.6011 11.6777 23.0237 12.5092 23.8349 13.204L27.0046 10.3794C25.0579 8.72795 22.5246 7.71429 19.4922 7.71429C15.0995 7.71429 11.3058 10.0149 9.45892 13.3633L13.0903 15.9374C14.0014 13.4659 16.5222 11.6777 19.4922 11.6777Z" fill="#EB4335"/>
</g>
<path d="M38.0455 18C38.0455 27.6334 29.6733 35.5 19.2727 35.5C8.87211 35.5 0.5 27.6334 0.5 18C0.5 8.36664 8.87211 0.5 19.2727 0.5C29.6733 0.5 38.0455 8.36664 38.0455 18Z" stroke="#BABABA"/>
<defs>
<clipPath id="clip0_96_3320">
<rect width="22.026" height="20.5714" fill="white" transform="translate(8.25977 7.71428)"/>
</clipPath>
</defs>
</svg>
